<svg width="14" height="25" viewBox="0 0 14 25" fill="none" xmlns="http://www.w3.org/2000/svg">
<path d="M8.36523 14.0625V24.5H4.47412V14.0625V13.5625H3.97412H0.5V10.0381H3.97412H4.47412V9.53809V6.08984C4.47412 4.22821 5.02658 2.84472 5.9432 1.92724C6.86032 1.00925 8.19967 0.5 9.88623 0.5C10.7158 0.5 11.5708 0.574251 12.2227 0.649532C12.4843 0.679728 12.7116 0.709911 12.8896 0.735155V3.65771H11.416C10.3353 3.65771 9.54451 3.99751 9.0333 4.58865C8.53381 5.16625 8.36523 5.91046 8.36523 6.60205V9.53809V10.0381H8.86523H12.624L12.0831 13.5625H8.86523H8.36523V14.0625Z" fill="black" stroke="black"/>
</svg>
