<svg width="22" height="22" viewBox="0 0 22 22" fill="none" xmlns="http://www.w3.org/2000/svg">
<path d="M21.375 13.8521V21.3745H17.8447V14.7651C17.8447 13.9398 17.8426 12.872 17.502 12.0121C17.3261 11.5677 17.0512 11.1535 16.6216 10.8538C16.191 10.5535 15.6475 10.3979 14.9868 10.3979C14.3324 10.3979 13.7801 10.5259 13.325 10.7779C12.867 11.0315 12.5372 11.3942 12.3051 11.8149C11.8541 12.6329 11.7676 13.6817 11.7676 14.6431V21.3745H8.2373V7.77002H11.5869V9.26221V9.76221H12.0869H12.1504H12.4519L12.5926 9.49555C13.1157 8.50421 14.4291 7.40381 16.4414 7.40381C18.613 7.40381 19.7863 8.10798 20.4563 9.17215C21.1596 10.2894 21.375 11.9 21.375 13.8521ZM4.39648 21.3745H0.861328V7.77002H4.39648V21.3745ZM2.62646 4.77783C1.45853 4.77783 0.5 3.80667 0.5 2.62646C0.5 2.06249 0.724038 1.52162 1.12283 1.12283C1.52162 0.724038 2.06249 0.5 2.62646 0.5C3.19044 0.5 3.73131 0.724038 4.1301 1.12283C4.52889 1.52162 4.75293 2.06249 4.75293 2.62646C4.75293 3.80661 3.79398 4.77783 2.62646 4.77783Z" fill="black" stroke="black"/>
</svg>
