<svg width="25" height="16" viewBox="0 0 25 16" fill="none" xmlns="http://www.w3.org/2000/svg">
<path d="M10.0694 7.02257L9.93369 7.50379C10.7835 7.74352 11.3823 8.17284 11.7735 8.73178C12.1676 9.29484 12.3776 10.0282 12.3776 10.9158C12.3776 12.3169 11.7989 13.2829 10.9227 13.9153C10.0263 14.5622 8.78362 14.8819 7.4566 14.8819H0.5V0.5H7.2526C8.54113 0.5 9.65358 0.68616 10.4319 1.17878C11.1672 1.64412 11.6701 2.42493 11.6701 3.81076C11.6701 4.50708 11.51 5.04385 11.222 5.47362C10.932 5.90645 10.4865 6.26904 9.85382 6.57145L10.0694 7.02257ZM2.88108 6.21528V6.71528H3.38108H6.8099C7.47495 6.71528 8.12014 6.57204 8.60743 6.17829C9.11344 5.76942 9.37153 5.15419 9.37153 4.38368C9.37153 3.52127 9.02216 2.91124 8.43196 2.54827C7.8855 2.2122 7.19244 2.12587 6.55382 2.12587H3.38108V2.62587H2.88108V6.21528ZM2.88108 12.7691V13.2691H3.38108H6.99653C7.7283 13.2691 8.47377 13.1425 9.04838 12.742C9.65533 12.319 9.99653 11.6439 9.99653 10.7292C9.99653 9.83852 9.72604 9.12927 9.16005 8.65651C8.61132 8.19818 7.86749 8.03299 7.06597 8.03299H3.38108H2.88108V8.53299V12.7691ZM22.0564 1.30729V1.82205H16.8194V1.30729H22.0564ZM24.0684 12.4271C23.6939 13.2824 23.1951 13.9111 22.582 14.3482C21.8207 14.8908 20.8343 15.1727 19.579 15.1727C17.9382 15.1727 16.6506 14.6206 15.7722 13.7041C14.8914 12.7849 14.3802 11.4552 14.3802 9.82639C14.3802 6.73481 16.4861 4.43229 19.579 4.43229C21.1824 4.43229 22.3955 5.05695 23.2161 6.03848C24.0452 7.03018 24.5 8.41984 24.5 9.97396C24.5 9.99819 24.4998 10.0225 24.4994 10.0469H16.9401H16.4401V10.5469C16.4401 11.5224 16.6982 12.3704 17.2719 12.9766C17.8498 13.5873 18.6801 13.8811 19.6745 13.8811C20.2203 13.8811 20.8341 13.7353 21.3606 13.4502C21.7832 13.2214 22.1821 12.8838 22.4238 12.4271H24.0684ZM16.4456 8.58575L16.4092 9.11979H16.9444H21.9227H22.4688L22.4208 8.57584C22.3494 7.76633 22.0961 7.04675 21.5878 6.52742C21.0716 6.00006 20.3535 5.74132 19.4835 5.74132C18.6437 5.74132 17.9049 6.0054 17.3592 6.51741C16.8137 7.02919 16.5027 7.74963 16.4456 8.58575Z" fill="black" stroke="black"/>
</svg>
